PathFileType	4	(X/Y/Z)	C:/Users/beibeiliu/ov580/test_trc/User3\sequence.40_training_dense_left.trc
DataRate	CameraRate	NumFrames	NumMarkers	Units	OrigDataRate	OrigDataStartFrame	OrigNumFrames
120	120	19	19	mm	120	180	287
Frame#	Time	ThumbCMC			ThumbMCP			ThumbIP			ThumbTip			IndexMCP			IndexPIP			IndexTip			MiddleMCP			MiddlePIP			MiddleTip			RingMCP			RingPIP			RingTip			PinkyMCP			PinkyPIP			PinkyTip			BackHand1			BackHand2			BackHand3	
		X0	Y0	Z0	X1	Y1	Z1	X2	Y2	Z2	X3	Y3	Z3	X4	Y4	Z4	X5	Y5	Z5	X6	Y6	Z6	X7	Y7	Z7	X8	Y8	Z8	X9	Y9	Z9	X10	Y10	Z10	X11	Y11	Z11	X12	Y12	Z12	X13	Y13	Z13	X14	Y14	Z14	X15	Y15	Z15	X16	Y16	Z16	X17	Y17	Z17	X18	Y18	Z18	
179	1.49167	-188.646	-3.35695	35.2183	-160.846	0.980267	14.578	-137.828	-3.05244	-9.45341	-121.782	-12.813	-21.0495	-193.166	-24.8013	-42.9476	-180.706	-18.4406	-64.8271	-154.198	-15.2834	-77.3849	-189.186	-44.5734	-43.0127	-167.595	-39.7018	-66.925	-132.034	-26.9914	-63.1097	-173.645	-64.2996	-30.7243	-151.67	-57.4066	-50.2807	-123.021	-39.6116	-42.6462	-164.402	-80.6319	-15.0085	-148.61	-78.6166	-34.0906	-126.788	-71.6457	-44.3534	-200.149	-67.1214	18.7972	-206.449	-62.9077	47.3758	-216.785	-35.3576	28.3857	
180	1.5	-189.499	-5.44723	33.6912	-162.182	0.990093	13.9226	-138.242	-1.4061	-13.7171	-122.256	-14.8167	-26.6146	-194.886	-28.0462	-37.7857	-178.794	-22.9118	-66.3453	-158.059	-12.7248	-81.7118	-183.934	-43.3533	-45.8942	-157.503	-35.509	-64.5139	-125.598	-21.1637	-53.0694	-172.438	-63.8218	-35.0673	-152.855	-55.7279	-51.0313	-122.251	-39.8073	-43.5014	-166.896	-77.4312	-15.9977	-151.891	-80.6301	-33.2675	-130.859	-76.4212	-46.8255	-202.69	-63.9546	15.397	-207.784	-67.5797	42.9627	-214.437	-37.569	27.8805	
181	1.50833	-189.736	-7.48511	32.9668	-161.493	1.14333	8.68085	-141.508	-0.632406	-11.7936	-124.507	-12.9384	-28.2208	-197.199	-26.8386	-42.5145	-185.16	-24.1896	-64.4267	-162.912	-14.0274	-86.2743	-181.253	-45.6693	-42.5989	-157.182	-34.7643	-60.2246	-121.187	-20.3407	-45.0855	-173.14	-64.2607	-29.4379	-147.357	-55.126	-49.9494	-123.486	-41.3072	-44.1557	-166.61	-81.0339	-10.5111	-153.806	-79.1339	-34.7876	-132.593	-78.66	-49.2807	-202.925	-64.8444	16.7278	-206.495	-66.5015	48.1634	-215.381	-38.7944	23.9893	
182	1.51667	-190.325	-7.43997	36.3823	-162.093	-0.243084	9.90388	-140.673	-2.12517	-13.6108	-125.198	-11.0909	-26.6736	-199.878	-27.2116	-38.8298	-189.903	-24.3452	-64.8702	-170.226	-18.7939	-88.7301	-181.271	-45.0853	-42.5593	-150.375	-35.8844	-58.4487	-123.611	-22.3121	-45.7226	-173.861	-59.4533	-33.8593	-148.688	-55.7266	-49.3047	-119.008	-41.6711	-43.299	-168.587	-80.1277	-14.1892	-154.491	-85.0689	-30.8732	-133.865	-79.459	-49.2695	-201.368	-66.8841	18.5076	-208.32	-65.3549	48.8186	-216.377	-37.0161	27.3326	
183	1.525	-190.648	-8.59914	34.0176	-161.894	-0.027693	10.0259	-141.9	-1.2205	-12.7994	-126.745	-15.0537	-27.7487	-199.468	-29.6562	-40.8156	-189.508	-22.0095	-70.37	-174.532	-17.6536	-88.5195	-181.706	-48.2792	-40.2892	-150.795	-36.7263	-59.1318	-121.623	-20.7687	-44.4296	-174.303	-62.1481	-31.838	-148.207	-58.8019	-49.7601	-123.302	-43.3338	-47.305	-169.466	-80.777	-12.2892	-156.413	-80.4131	-34.3133	-140.395	-80.288	-51.0083	-203.774	-63.7245	19.7201	-207.969	-68.4506	47.9803	-217.037	-37.4127	28.9099	
184	1.53333	-191.376	-6.89731	31.051	-163.529	0.263977	10.3136	-144.231	-2.08744	-12.0948	-129.232	-7.11365	-26.2155	-199.973	-28.9263	-39.1257	-189.752	-23.3123	-65.3047	-170.303	-19.9472	-84.9207	-180.376	-48.1954	-44.1009	-158.369	-36.1935	-61.1137	-126.063	-19.7534	-49.6018	-174.7	-64.0694	-34.7016	-153.768	-57.5128	-51.6761	-123.536	-43.7317	-51.5053	-170.331	-80.2103	-15.0406	-158.218	-80.7043	-35.7385	-138.217	-81.0643	-49.9271	-203.772	-66.3498	18.0179	-206.894	-65.2638	48.3017	-217.803	-37.3172	25.9223	
185	1.54167	-191.905	-6.20972	33.5168	-166.1	1.07898	10.1969	-147.2	3.81004	-13.9856	-131.662	-2.75523	-29.0822	-198.211	-28.0766	-41.4353	-183.926	-23.4151	-64.3777	-159.763	-16.0208	-77.4324	-187.168	-44.8167	-44.3618	-161.342	-38.6875	-61.6543	-129.531	-22.2468	-54.0134	-179.485	-62.3764	-30.559	-161.555	-57.972	-53.8794	-131.089	-44.8214	-56.4848	-172.762	-76.6284	-11.4383	-156.772	-82.6926	-35.7116	-140.81	-78.7972	-50.1563	-204.572	-65.4719	18.0809	-207.792	-64.2331	44.9374	-218.453	-36.1112	26.1382	
186	1.55	-194.006	-2.79191	34.4727	-168.082	3.7658	11.2887	-149.601	11.2131	-10.9045	-134.936	6.3523	-26.4956	-194.365	-25.848	-36.7403	-170.525	-18.6569	-62.6419	-147.691	-9.75016	-65.3197	-188.072	-46.925	-40.1904	-162.879	-36.4722	-64.6695	-130.615	-23.2318	-59.4947	-181.632	-59.9402	-35.2225	-161.489	-59.8947	-56.1214	-131.278	-48.0109	-61.0018	-171.193	-80.5906	-14.6945	-161.168	-80.2839	-34.6933	-141.904	-75.0668	-53.8937	-202.548	-68.3387	20.2128	-210.141	-66.2669	45.1677	-219.474	-34.0199	29.4305	
187	1.55833	-193.628	-7.09327	36.0874	-171.383	2.17147	13.1634	-152.776	10.1948	-12.1625	-138.87	7.80275	-30.2254	-188.77	-24.459	-39.0911	-168.52	-15.5479	-57.6697	-136.403	-3.50107	-54.2327	-188.621	-41.7253	-44.724	-164.146	-38.2352	-65.1974	-132.334	-24.139	-62.2029	-183.559	-57.9534	-35.481	-165.322	-56.128	-57.2226	-138.045	-49.2396	-64.1562	-171.664	-79.5447	-15.3327	-159.016	-81.6224	-35.7549	-140.204	-75.9433	-52.2446	-203.537	-62.1163	14.8949	-207.63	-67.0807	44.8944	-217.754	-37.8141	25.8367	
188	1.56667	-194.248	-4.39653	35.2481	-172.028	5.99093	9.92363	-155.008	9.27272	-15.4487	-140.231	3.12301	-33.2281	-188.823	-22.1544	-38.7491	-165.826	-13.0215	-56.769	-134.763	-3.52384	-50.7139	-188.285	-44.8127	-40.862	-165.805	-35.4544	-65.5938	-127.976	-20.5477	-63.4874	-182.737	-60.8137	-34.4878	-164.31	-58.8944	-58.0249	-136.163	-46.983	-65.5075	-172.181	-76.4271	-18.2951	-159.215	-81.0259	-34.5501	-139.586	-77.5831	-50.2821	-203.903	-67.1131	14.1889	-209.929	-65.1932	47.7171	-218.227	-36.1322	24.1244	
189	1.575	-193.321	-4.09963	34.5839	-172.582	1.50366	9.98599	-154.6	9.03657	-14.1442	-139.673	3.67997	-34.945	-192.167	-19.2108	-37.4312	-165.973	-11.5009	-57.947	-138.122	-1.04998	-53.075	-189.963	-41.9525	-42.3259	-166.757	-37.4859	-66.0063	-129.829	-25.178	-64.8369	-185.176	-56.9243	-36.0074	-163.526	-59.1741	-59.6389	-136.102	-47.0519	-67.2389	-173.189	-77.7065	-18.075	-160.86	-77.5099	-35.3047	-140.01	-74.6937	-53.0604	-207.122	-62.1729	18.536	-211.602	-64.8952	47.7931	-217.378	-31.7677	26.9454	
190	1.58333	-192.378	-1.28815	34.8617	-169.734	4.54661	8.11262	-153.101	7.32992	-16.5821	-139.697	2.10396	-34.4237	-193.424	-19.7144	-36.3514	-169.586	-15.6861	-57.5234	-138.534	-2.98489	-54.5547	-191.564	-41.3505	-43.459	-167.764	-33.6496	-68.1768	-133.316	-26.826	-66.7394	-184.95	-61.5941	-32.1688	-168.59	-56.7657	-58.1072	-137.509	-50.9011	-65.6897	-175.458	-75.8013	-13.3493	-161.916	-78.2622	-36.7272	-141.365	-75.3896	-55.3312	-204.316	-64.488	14.5669	-209.929	-65.2117	44.0169	-218.785	-29.8933	30.2239	
191	1.59167	-190.066	-4.54953	33.8535	-168.291	4.19901	12.6812	-151.712	6.11291	-11.6681	-138.344	-3.40154	-32.5325	-194.915	-19.0881	-37.9877	-173.063	-13.4533	-61.8742	-143.696	-7.91396	-60.5165	-194.044	-40.4614	-43.172	-172.285	-37.9827	-67.1588	-133.642	-27.3656	-66.2471	-188.939	-55.7947	-36.034	-168.132	-58.4766	-58.3426	-138.806	-51.5647	-63.4914	-178.527	-74.2195	-16.4128	-166.187	-80.7572	-36.6921	-143.653	-74.1531	-53.94	-207.997	-63.1958	15.7418	-211.801	-63.559	43.8871	-216.943	-32.5611	30.9658	
192	1.6	-186.221	-0.460726	36.997	-163.835	4.66083	10.8069	-148.091	2.68264	-13.8071	-131.822	-4.1332	-34.2981	-197.432	-16.913	-39.8854	-178.85	-16.2434	-61.651	-146.436	-6.31843	-65.4798	-195.669	-39.3581	-40.7088	-172.003	-38.1837	-65.5338	-135.599	-30.5308	-63.0986	-188.9	-58.3421	-35.0257	-168.916	-58.1481	-58.4543	-138.278	-47.6337	-60.8044	-181.242	-78.6763	-15.3355	-169.475	-82.7958	-37.1247	-146.97	-79.0117	-53.5701	-209.096	-60.0966	19.3617	-213.155	-57.9738	49.1888	-216.319	-27.945	31.2101	
193	1.60833	-184.117	-0.743921	39.5779	-160.449	-0.64754	13.3727	-143.85	-1.66777	-14.5593	-129.721	-7.43252	-32.2663	-198.191	-15.2869	-39.7376	-180.757	-11.9216	-63.1264	-150.26	-12.3248	-70.7517	-193.336	-37.2324	-44.6103	-170.361	-37.6567	-64.2291	-133.184	-33.4181	-55.24	-188.756	-58.1938	-35.9914	-166.9	-56.4072	-56.2185	-138.359	-52.2614	-54.7136	-185.419	-73.1007	-14.7755	-172.594	-80.4489	-38.8858	-146.229	-74.9191	-54.2067	-209.776	-60.0146	16.0657	-215.48	-61.8347	48.1217	-215.72	-24.6575	30.881	
194	1.61667	-181.236	-4.79406	36.1667	-157.881	-0.730599	11.7243	-142.202	-5.28603	-10.8538	-132.079	-17.4577	-32.2398	-197.759	-16.278	-37.3316	-179.904	-12.4338	-64.9245	-155.981	-10.1257	-73.7584	-192.711	-35.7787	-42.1285	-164.552	-36.3138	-62.7618	-131.848	-35.088	-50.1604	-189.319	-56.7385	-31.8674	-166.853	-57.6479	-53.173	-132.259	-49.8767	-47.1499	-186.816	-74.1725	-15.112	-172.43	-75.2993	-40.5214	-148.915	-71.1567	-52.9161	-210.914	-58.9739	19.7106	-212.722	-58.5756	49.3305	-214.784	-26.2244	34.0217	
195	1.625	-178.808	-5.01519	39.8125	-157.017	-3.42073	13.9877	-141.702	-5.80271	-14.6381	-129.602	-16.8393	-31.1429	-197.943	-14.9085	-34.5858	-180.511	-14.3212	-65.4816	-155.304	-13.0097	-75.625	-191.496	-36.8094	-43.0272	-166.784	-38.52	-61.638	-127.79	-33.3379	-45.8393	-188.015	-58.5495	-31.8739	-165.287	-59.1255	-52.4808	-134.068	-53.5924	-46.1833	-186.807	-73.5357	-17.7915	-176.578	-75.2848	-38.7898	-149.783	-69.3138	-52.36	-211.773	-57.5988	18.5136	-212.852	-57.2412	46.2145	-214.004	-25.9024	29.4237	
196	1.63333	-178.362	-8.1063	38.2365	-156.367	-3.85111	14.6184	-139.624	-5.26954	-12.381	-129.298	-18.5918	-36.9278	-196.857	-14.2947	-35.6715	-182.868	-15.3085	-61.9786	-155.315	-16.2668	-76.9513	-191.469	-37.5243	-40.3347	-161.584	-38.9201	-61.198	-125.441	-31.7807	-46.1073	-188.111	-57.1984	-34.324	-162.635	-54.0726	-54.3392	-133.151	-51.0453	-46.7368	-186.917	-73.2086	-17.1826	-175.535	-76.3621	-40.8773	-150.026	-73.5106	-52.9459	-210.301	-59.8213	18.6675	-213.648	-60.3602	48.1416	-212.264	-23.4308	33.6222	
197	1.64167	-176.233	-3.75166	38.1248	-154.193	-3.7237	15.0641	-139.893	-7.49003	-14.605	-127.859	-15.5961	-35.1311	-195.446	-11.9421	-37.5176	-179.363	-12.885	-64.7263	-156.146	-11.8015	-76.8228	-191.201	-37.4408	-41.1045	-165.886	-32.699	-62.2331	-125.817	-32.4708	-49.2011	-189.283	-54.3679	-34.1447	-166.657	-53.8251	-54.9237	-135.28	-54.8365	-49.0614	-188.034	-72.5416	-18.1201	-175.652	-76.3936	-40.9576	-154.196	-74.5071	-54.8458	-209.751	-55.951	17.535	-210.655	-58.567	50.4939	-210.322	-25.1241	30.7086	
